<mxfile host="app.diagrams.net" modified="2021-06-15T03:08:53.985Z" agent="5.0 (Windows NT 10.0; Win64; x64) AppleWebKit/537.36 (KHTML, like Gecko) Chrome/91.0.4472.77 Safari/537.36 Edg/91.0.864.41" etag="g4xBaJGIeNWcpOJinEwN" version="14.7.7" type="github">
  <diagram id="91hciNXROU8brAeT5Y9-" name="Page-1">
    <mxGraphModel dx="2583" dy="3144" grid="1" gridSize="10" guides="1" tooltips="1" connect="1" arrows="1" fold="1" page="1" pageScale="1" pageWidth="1169" pageHeight="1654" math="0" shadow="0">
      <root>
        <mxCell id="0" />
        <mxCell id="1" parent="0" />
        <mxCell id="WRAjtMvJbfz25hIAmW6u-1" value="" style="group" vertex="1" connectable="0" parent="1">
          <mxGeometry y="-480" width="319" height="440" as="geometry" />
        </mxCell>
        <mxCell id="WRAjtMvJbfz25hIAmW6u-2" value="" style="group" vertex="1" connectable="0" parent="WRAjtMvJbfz25hIAmW6u-1">
          <mxGeometry width="200" height="280" as="geometry" />
        </mxCell>
        <mxCell id="WRAjtMvJbfz25hIAmW6u-3" value="" style="rounded=0;whiteSpace=wrap;html=1;fillColor=none;" vertex="1" parent="WRAjtMvJbfz25hIAmW6u-2">
          <mxGeometry width="200" height="280" as="geometry" />
        </mxCell>
        <mxCell id="WRAjtMvJbfz25hIAmW6u-4" value="&lt;font face=&quot;Comic Sans MS&quot;&gt;&lt;span style=&quot;font-size: 18px&quot;&gt;&lt;b&gt;开课单&lt;/b&gt;&lt;/span&gt;&lt;/font&gt;" style="rounded=0;whiteSpace=wrap;html=1;fillColor=#d5e8d4;strokeColor=#82b366;" vertex="1" parent="WRAjtMvJbfz25hIAmW6u-2">
          <mxGeometry x="40" y="200" width="120" height="40" as="geometry" />
        </mxCell>
        <mxCell id="WRAjtMvJbfz25hIAmW6u-5" value="&lt;font style=&quot;font-size: 18px&quot; face=&quot;Comic Sans MS&quot;&gt;&lt;b&gt;学院教务&lt;/b&gt;&lt;/font&gt;" style="rounded=0;whiteSpace=wrap;html=1;fillColor=#dae8fc;strokeColor=#6c8ebf;" vertex="1" parent="WRAjtMvJbfz25hIAmW6u-2">
          <mxGeometry x="40" y="40" width="120" height="40" as="geometry" />
        </mxCell>
        <mxCell id="WRAjtMvJbfz25hIAmW6u-6" style="edgeStyle=orthogonalEdgeStyle;rounded=0;orthogonalLoop=1;jettySize=auto;html=1;exitX=0.5;exitY=1;exitDx=0;exitDy=0;entryX=0.5;entryY=0;entryDx=0;entryDy=0;" edge="1" parent="WRAjtMvJbfz25hIAmW6u-2" source="WRAjtMvJbfz25hIAmW6u-7" target="WRAjtMvJbfz25hIAmW6u-4">
          <mxGeometry relative="1" as="geometry" />
        </mxCell>
        <mxCell id="WRAjtMvJbfz25hIAmW6u-7" value="&lt;font style=&quot;font-size: 18px&quot; face=&quot;Comic Sans MS&quot;&gt;&lt;b&gt;老师&lt;/b&gt;&lt;/font&gt;" style="rounded=0;whiteSpace=wrap;html=1;fillColor=#dae8fc;strokeColor=#6c8ebf;" vertex="1" parent="WRAjtMvJbfz25hIAmW6u-2">
          <mxGeometry x="40" y="120" width="120" height="40" as="geometry" />
        </mxCell>
        <mxCell id="WRAjtMvJbfz25hIAmW6u-8" style="edgeStyle=orthogonalEdgeStyle;rounded=0;orthogonalLoop=1;jettySize=auto;html=1;exitX=0.5;exitY=1;exitDx=0;exitDy=0;entryX=0.5;entryY=0;entryDx=0;entryDy=0;" edge="1" parent="WRAjtMvJbfz25hIAmW6u-2" source="WRAjtMvJbfz25hIAmW6u-5" target="WRAjtMvJbfz25hIAmW6u-7">
          <mxGeometry relative="1" as="geometry" />
        </mxCell>
        <mxCell id="WRAjtMvJbfz25hIAmW6u-9" value="&lt;font face=&quot;Comic Sans MS&quot;&gt;&lt;span style=&quot;font-size: 14px&quot;&gt;指定&lt;/span&gt;&lt;/font&gt;" style="text;html=1;strokeColor=none;fillColor=none;align=center;verticalAlign=middle;whiteSpace=wrap;rounded=0;" vertex="1" parent="WRAjtMvJbfz25hIAmW6u-2">
          <mxGeometry x="60" y="90" width="40" height="20" as="geometry" />
        </mxCell>
        <mxCell id="WRAjtMvJbfz25hIAmW6u-10" value="&lt;font face=&quot;Comic Sans MS&quot;&gt;&lt;span style=&quot;font-size: 14px&quot;&gt;填写&lt;/span&gt;&lt;/font&gt;" style="text;html=1;strokeColor=none;fillColor=none;align=center;verticalAlign=middle;whiteSpace=wrap;rounded=0;" vertex="1" parent="WRAjtMvJbfz25hIAmW6u-2">
          <mxGeometry x="60" y="170" width="40" height="20" as="geometry" />
        </mxCell>
        <mxCell id="WRAjtMvJbfz25hIAmW6u-11" value="计划讲台表" style="swimlane;fillColor=#e1d5e7;strokeColor=#9673a6;startSize=23;" vertex="1" parent="WRAjtMvJbfz25hIAmW6u-1">
          <mxGeometry x="60" y="400" width="80" height="40" as="geometry" />
        </mxCell>
        <mxCell id="WRAjtMvJbfz25hIAmW6u-12" style="edgeStyle=orthogonalEdgeStyle;shape=link;rounded=0;orthogonalLoop=1;jettySize=auto;html=1;exitX=0.5;exitY=0;exitDx=0;exitDy=0;entryX=0.5;entryY=1;entryDx=0;entryDy=0;" edge="1" parent="WRAjtMvJbfz25hIAmW6u-1" source="WRAjtMvJbfz25hIAmW6u-14" target="WRAjtMvJbfz25hIAmW6u-3">
          <mxGeometry relative="1" as="geometry" />
        </mxCell>
        <mxCell id="WRAjtMvJbfz25hIAmW6u-13" style="edgeStyle=orthogonalEdgeStyle;rounded=0;orthogonalLoop=1;jettySize=auto;html=1;exitX=0.5;exitY=1;exitDx=0;exitDy=0;entryX=0.5;entryY=0;entryDx=0;entryDy=0;" edge="1" parent="WRAjtMvJbfz25hIAmW6u-1" source="WRAjtMvJbfz25hIAmW6u-14" target="WRAjtMvJbfz25hIAmW6u-11">
          <mxGeometry relative="1" as="geometry" />
        </mxCell>
        <mxCell id="WRAjtMvJbfz25hIAmW6u-14" value="开课单表" style="swimlane;fillColor=#e1d5e7;strokeColor=#9673a6;startSize=23;" vertex="1" parent="WRAjtMvJbfz25hIAmW6u-1">
          <mxGeometry x="60" y="320" width="80" height="40" as="geometry" />
        </mxCell>
        <mxCell id="WRAjtMvJbfz25hIAmW6u-15" style="edgeStyle=orthogonalEdgeStyle;rounded=0;orthogonalLoop=1;jettySize=auto;html=1;exitX=0;exitY=0.5;exitDx=0;exitDy=0;entryX=1;entryY=0.214;entryDx=0;entryDy=0;entryPerimeter=0;shape=link;" edge="1" parent="WRAjtMvJbfz25hIAmW6u-1" source="WRAjtMvJbfz25hIAmW6u-16">
          <mxGeometry relative="1" as="geometry">
            <mxPoint x="200" y="99.91999999999996" as="targetPoint" />
          </mxGeometry>
        </mxCell>
        <mxCell id="WRAjtMvJbfz25hIAmW6u-16" value="课程表" style="swimlane;fillColor=#f5f5f5;strokeColor=#666666;fontColor=#333333;" vertex="1" parent="WRAjtMvJbfz25hIAmW6u-1">
          <mxGeometry x="239" y="80" width="80" height="40" as="geometry" />
        </mxCell>
        <mxCell id="WRAjtMvJbfz25hIAmW6u-18" value="" style="group;" vertex="1" connectable="0" parent="1">
          <mxGeometry x="400" y="400" width="360" height="200" as="geometry" />
        </mxCell>
        <mxCell id="WRAjtMvJbfz25hIAmW6u-19" value="&lt;span style=&quot;font-size: 11.0pt ; font-family: &amp;#34;微软雅黑&amp;#34; , sans-serif ; color: #333333&quot;&gt;设定他所承担的课程的那个讲台的选课要求&lt;/span&gt;" style="rounded=0;whiteSpace=wrap;html=1;fillColor=#d5e8d4;strokeColor=#82b366;" vertex="1" parent="WRAjtMvJbfz25hIAmW6u-18">
          <mxGeometry width="120" height="55" as="geometry" />
        </mxCell>
        <mxCell id="WRAjtMvJbfz25hIAmW6u-20" value="&lt;span style=&quot;font-size: 11.0pt ; font-family: &amp;#34;微软雅黑&amp;#34; , sans-serif ; color: #333333&quot;&gt;选课要求包括年级、专业、班级、先修课程及成绩，也可以设定不可选择该课程的年级、专业和班级&lt;/span&gt;" style="rounded=0;whiteSpace=wrap;html=1;fillColor=#fff2cc;strokeColor=#d6b656;" vertex="1" parent="WRAjtMvJbfz25hIAmW6u-18">
          <mxGeometry y="55" width="120" height="145" as="geometry" />
        </mxCell>
        <mxCell id="WRAjtMvJbfz25hIAmW6u-21" value="&lt;span lang=&quot;EN-US&quot; style=&quot;font-size: 11.0pt ; font-family: &amp;#34;微软雅黑&amp;#34; , sans-serif ; color: #333333&quot;&gt;5/5/6&lt;/span&gt;" style="rounded=0;whiteSpace=wrap;html=1;fillColor=#dae8fc;strokeColor=#6c8ebf;" vertex="1" parent="WRAjtMvJbfz25hIAmW6u-18">
          <mxGeometry x="120" width="120" height="55" as="geometry" />
        </mxCell>
        <mxCell id="WRAjtMvJbfz25hIAmW6u-22" value="" style="rounded=0;whiteSpace=wrap;html=1;fillColor=#ffe6cc;strokeColor=#d79b00;" vertex="1" parent="WRAjtMvJbfz25hIAmW6u-18">
          <mxGeometry x="120" y="55" width="120" height="145" as="geometry" />
        </mxCell>
        <mxCell id="WRAjtMvJbfz25hIAmW6u-23" value="&lt;span style=&quot;font-size: 11.0pt ; font-family: &amp;#34;微软雅黑&amp;#34; , sans-serif ; color: #333333&quot;&gt;在学生开始选课前，系统能够自动提醒老师设定选课要求&lt;/span&gt;" style="rounded=0;whiteSpace=wrap;html=1;fillColor=#f8cecc;strokeColor=#b85450;" vertex="1" parent="WRAjtMvJbfz25hIAmW6u-18">
          <mxGeometry x="240" y="55" width="120" height="145" as="geometry" />
        </mxCell>
        <mxCell id="WRAjtMvJbfz25hIAmW6u-25" value="" style="group" vertex="1" connectable="0" parent="1">
          <mxGeometry x="400" y="600" width="360" height="320" as="geometry" />
        </mxCell>
        <mxCell id="WRAjtMvJbfz25hIAmW6u-26" value="&lt;span style=&quot;font-size: 11.0pt ; font-family: &amp;#34;微软雅黑&amp;#34; , sans-serif ; color: #333333&quot;&gt;课程的责任教师能够通过该系统在下学期教学准备阶段提交开课申请&lt;/span&gt;" style="rounded=0;whiteSpace=wrap;html=1;fillColor=#d5e8d4;strokeColor=#82b366;" vertex="1" parent="WRAjtMvJbfz25hIAmW6u-25">
          <mxGeometry width="120" height="75" as="geometry" />
        </mxCell>
        <mxCell id="WRAjtMvJbfz25hIAmW6u-27" value="" style="rounded=0;whiteSpace=wrap;html=1;fillColor=#fff2cc;strokeColor=#d6b656;" vertex="1" parent="WRAjtMvJbfz25hIAmW6u-25">
          <mxGeometry y="75" width="120" height="245" as="geometry" />
        </mxCell>
        <mxCell id="WRAjtMvJbfz25hIAmW6u-28" value="&lt;span lang=&quot;EN-US&quot; style=&quot;font-size: 11.0pt ; font-family: &amp;#34;微软雅黑&amp;#34; , sans-serif ; color: #333333&quot;&gt;0/0/8&lt;/span&gt;" style="rounded=0;whiteSpace=wrap;html=1;fillColor=#dae8fc;strokeColor=#6c8ebf;" vertex="1" parent="WRAjtMvJbfz25hIAmW6u-25">
          <mxGeometry x="120" width="120" height="75" as="geometry" />
        </mxCell>
        <mxCell id="WRAjtMvJbfz25hIAmW6u-29" value="" style="rounded=0;whiteSpace=wrap;html=1;fillColor=#ffe6cc;strokeColor=#d79b00;" vertex="1" parent="WRAjtMvJbfz25hIAmW6u-25">
          <mxGeometry x="120" y="75" width="120" height="245" as="geometry" />
        </mxCell>
        <mxCell id="WRAjtMvJbfz25hIAmW6u-30" value="&lt;span style=&quot;font-size: 11.0pt ; font-family: &amp;#34;微软雅黑&amp;#34; , sans-serif ; color: #333333&quot;&gt;能够在线填写开课申请单。开课申请包括课程名称和&lt;span lang=&quot;EN-US&quot;&gt;ID&lt;/span&gt;、开课班级、划分的讲台、每个讲台对应的班级及授课教师，以及每个讲台的开课时间、地点和设备约束，具体应参考实际申请表。&lt;/span&gt;&lt;span style=&quot;font-size: 11.0pt ; font-family: &amp;#34;微软雅黑&amp;#34; , sans-serif ; color: #333333&quot;&gt;注意，课程的责任教师是在每次开课前由教务指定的&lt;/span&gt;" style="rounded=0;whiteSpace=wrap;html=1;fillColor=#f8cecc;strokeColor=#b85450;" vertex="1" parent="WRAjtMvJbfz25hIAmW6u-25">
          <mxGeometry x="240" y="75" width="120" height="245" as="geometry" />
        </mxCell>
        <mxCell id="WRAjtMvJbfz25hIAmW6u-31" value="" style="group;" vertex="1" connectable="0" parent="1">
          <mxGeometry x="809" width="360" height="200" as="geometry" />
        </mxCell>
        <mxCell id="WRAjtMvJbfz25hIAmW6u-32" value="&lt;span style=&quot;font-size: 11.0pt ; font-family: &amp;#34;微软雅黑&amp;#34; , sans-serif ; color: #333333&quot;&gt;管理下发开课申请单&lt;/span&gt;" style="rounded=0;whiteSpace=wrap;html=1;fillColor=#d5e8d4;strokeColor=#82b366;" vertex="1" parent="WRAjtMvJbfz25hIAmW6u-31">
          <mxGeometry width="120" height="55" as="geometry" />
        </mxCell>
        <mxCell id="WRAjtMvJbfz25hIAmW6u-33" value="" style="rounded=0;whiteSpace=wrap;html=1;fillColor=#fff2cc;strokeColor=#d6b656;" vertex="1" parent="WRAjtMvJbfz25hIAmW6u-31">
          <mxGeometry y="55" width="120" height="145" as="geometry" />
        </mxCell>
        <mxCell id="WRAjtMvJbfz25hIAmW6u-34" value="&lt;span lang=&quot;EN-US&quot; style=&quot;font-size: 11.0pt ; font-family: &amp;#34;微软雅黑&amp;#34; , sans-serif ; color: #333333&quot;&gt;0/0/4&lt;/span&gt;" style="rounded=0;whiteSpace=wrap;html=1;fillColor=#dae8fc;strokeColor=#6c8ebf;" vertex="1" parent="WRAjtMvJbfz25hIAmW6u-31">
          <mxGeometry x="120" width="120" height="55" as="geometry" />
        </mxCell>
        <mxCell id="WRAjtMvJbfz25hIAmW6u-35" value="" style="rounded=0;whiteSpace=wrap;html=1;fillColor=#ffe6cc;strokeColor=#d79b00;" vertex="1" parent="WRAjtMvJbfz25hIAmW6u-31">
          <mxGeometry x="120" y="55" width="120" height="145" as="geometry" />
        </mxCell>
        <mxCell id="WRAjtMvJbfz25hIAmW6u-36" value="&lt;span style=&quot;font-size: 11.0pt ; font-family: &amp;#34;微软雅黑&amp;#34; , sans-serif ; color: #333333&quot;&gt;每次排课前，需要对每个课程指定一个责任教师，从而使得该老师可以填写申请单&lt;/span&gt;" style="rounded=0;whiteSpace=wrap;html=1;fillColor=#f8cecc;strokeColor=#b85450;" vertex="1" parent="WRAjtMvJbfz25hIAmW6u-31">
          <mxGeometry x="240" y="55" width="120" height="145" as="geometry" />
        </mxCell>
        <mxCell id="WRAjtMvJbfz25hIAmW6u-38" value="" style="group" vertex="1" connectable="0" parent="1">
          <mxGeometry x="809" y="200" width="360" height="440" as="geometry" />
        </mxCell>
        <mxCell id="WRAjtMvJbfz25hIAmW6u-39" value="&lt;span style=&quot;font-size: 11.0pt ; font-family: &amp;#34;微软雅黑&amp;#34; , sans-serif ; color: #333333&quot;&gt;排课&lt;/span&gt;" style="rounded=0;whiteSpace=wrap;html=1;fillColor=#d5e8d4;strokeColor=#82b366;" vertex="1" parent="WRAjtMvJbfz25hIAmW6u-38">
          <mxGeometry width="120" height="55" as="geometry" />
        </mxCell>
        <mxCell id="WRAjtMvJbfz25hIAmW6u-40" value="&lt;span style=&quot;font-size: 11.0pt ; font-family: &amp;#34;微软雅黑&amp;#34; , sans-serif ; color: #333333&quot;&gt;每个课程的每个讲台安排一个上课时间和教室。注意&lt;span lang=&quot;EN-US&quot;&gt;1&lt;/span&gt;，系统必须能够检查和提示上课时间、教室是否有冲突，冲突的情况包括待授课的班级在该时间已经有别的课、该教室在该时间已经被占用、该教室的容量不够、该教室的类型不符合需求等。注意&lt;span lang=&quot;EN-US&quot;&gt;2&lt;/span&gt;，课程安排可以是部分的，即可以只安排时间，不安排地点。注意&lt;span lang=&quot;EN-US&quot;&gt;3&lt;/span&gt;，学院教务只能排专业课和专选课，不能排公共课&lt;/span&gt;" style="rounded=0;whiteSpace=wrap;html=1;fillColor=#fff2cc;strokeColor=#d6b656;" vertex="1" parent="WRAjtMvJbfz25hIAmW6u-38">
          <mxGeometry y="55" width="120" height="385" as="geometry" />
        </mxCell>
        <mxCell id="WRAjtMvJbfz25hIAmW6u-41" value="&lt;span lang=&quot;EN-US&quot; style=&quot;font-size: 11.0pt ; font-family: &amp;#34;微软雅黑&amp;#34; , sans-serif ; color: #333333&quot;&gt;10/12/20&lt;/span&gt;" style="rounded=0;whiteSpace=wrap;html=1;fillColor=#dae8fc;strokeColor=#6c8ebf;" vertex="1" parent="WRAjtMvJbfz25hIAmW6u-38">
          <mxGeometry x="120" width="120" height="55" as="geometry" />
        </mxCell>
        <mxCell id="WRAjtMvJbfz25hIAmW6u-42" value="&lt;span style=&quot;font-size: 11.0pt ; font-family: &amp;#34;微软雅黑&amp;#34; , sans-serif ; color: #333333&quot;&gt;系统能够列出无冲突的时间和教室&lt;/span&gt;" style="rounded=0;whiteSpace=wrap;html=1;fillColor=#ffe6cc;strokeColor=#d79b00;" vertex="1" parent="WRAjtMvJbfz25hIAmW6u-38">
          <mxGeometry x="120" y="55" width="120" height="385" as="geometry" />
        </mxCell>
        <mxCell id="WRAjtMvJbfz25hIAmW6u-43" value="&lt;span style=&quot;font-size: 11.0pt ; font-family: &amp;#34;微软雅黑&amp;#34; , sans-serif ; color: #333333&quot;&gt;系统能够根据教师填写的开课申请单自动进行排课&lt;/span&gt;" style="rounded=0;whiteSpace=wrap;html=1;fillColor=#f8cecc;strokeColor=#b85450;" vertex="1" parent="WRAjtMvJbfz25hIAmW6u-38">
          <mxGeometry x="240" y="55" width="120" height="385" as="geometry" />
        </mxCell>
        <mxCell id="WRAjtMvJbfz25hIAmW6u-51" value="" style="group;" vertex="1" connectable="0" parent="1">
          <mxGeometry x="809" y="640" width="360" height="200" as="geometry" />
        </mxCell>
        <mxCell id="WRAjtMvJbfz25hIAmW6u-52" value="&lt;span style=&quot;font-size: 11.0pt ; font-family: &amp;#34;微软雅黑&amp;#34; , sans-serif ; color: #333333&quot;&gt;进行学院教务的工作&lt;/span&gt;" style="rounded=0;whiteSpace=wrap;html=1;fillColor=#d5e8d4;strokeColor=#82b366;" vertex="1" parent="WRAjtMvJbfz25hIAmW6u-51">
          <mxGeometry width="120" height="55" as="geometry" />
        </mxCell>
        <mxCell id="WRAjtMvJbfz25hIAmW6u-53" value="&lt;span style=&quot;font-size: 11.0pt ; font-family: &amp;#34;微软雅黑&amp;#34; , sans-serif ; color: #333333&quot;&gt;学院教务具备学院教务的权限，可以管理任意学院。注意，学校教务可以进行公共课的排课工作&lt;/span&gt;" style="rounded=0;whiteSpace=wrap;html=1;fillColor=#fff2cc;strokeColor=#d6b656;" vertex="1" parent="WRAjtMvJbfz25hIAmW6u-51">
          <mxGeometry y="55" width="120" height="145" as="geometry" />
        </mxCell>
        <mxCell id="WRAjtMvJbfz25hIAmW6u-54" value="&lt;span lang=&quot;EN-US&quot; style=&quot;font-size: 11.0pt ; font-family: &amp;#34;微软雅黑&amp;#34; , sans-serif ; color: #333333&quot;&gt;10/10/10&lt;/span&gt;" style="rounded=0;whiteSpace=wrap;html=1;fillColor=#dae8fc;strokeColor=#6c8ebf;" vertex="1" parent="WRAjtMvJbfz25hIAmW6u-51">
          <mxGeometry x="120" width="120" height="55" as="geometry" />
        </mxCell>
        <mxCell id="WRAjtMvJbfz25hIAmW6u-55" value="" style="rounded=0;whiteSpace=wrap;html=1;fillColor=#ffe6cc;strokeColor=#d79b00;" vertex="1" parent="WRAjtMvJbfz25hIAmW6u-51">
          <mxGeometry x="120" y="55" width="120" height="145" as="geometry" />
        </mxCell>
        <mxCell id="WRAjtMvJbfz25hIAmW6u-56" value="" style="rounded=0;whiteSpace=wrap;html=1;fillColor=#f8cecc;strokeColor=#b85450;" vertex="1" parent="WRAjtMvJbfz25hIAmW6u-51">
          <mxGeometry x="240" y="55" width="120" height="145" as="geometry" />
        </mxCell>
        <mxCell id="WRAjtMvJbfz25hIAmW6u-58" value="" style="group;" vertex="1" connectable="0" parent="1">
          <mxGeometry y="200" width="360" height="200" as="geometry" />
        </mxCell>
        <mxCell id="WRAjtMvJbfz25hIAmW6u-59" value="&lt;span style=&quot;font-size: 11.0pt ; font-family: &amp;#34;微软雅黑&amp;#34; , sans-serif ; color: #333333&quot;&gt;在学期开始前通过该系统选课&lt;/span&gt;" style="rounded=0;whiteSpace=wrap;html=1;fillColor=#d5e8d4;strokeColor=#82b366;" vertex="1" parent="WRAjtMvJbfz25hIAmW6u-58">
          <mxGeometry width="120" height="55" as="geometry" />
        </mxCell>
        <mxCell id="WRAjtMvJbfz25hIAmW6u-60" value="&lt;span style=&quot;font-size: 11.0pt ; font-family: &amp;#34;微软雅黑&amp;#34; , sans-serif ; color: #333333&quot;&gt;根据自身的年级和专业，列出本学期可选课程、查看课程信息、并提交选课申请&lt;/span&gt;" style="rounded=0;whiteSpace=wrap;html=1;fillColor=#fff2cc;strokeColor=#d6b656;" vertex="1" parent="WRAjtMvJbfz25hIAmW6u-58">
          <mxGeometry y="55" width="120" height="145" as="geometry" />
        </mxCell>
        <mxCell id="WRAjtMvJbfz25hIAmW6u-61" value="&lt;span lang=&quot;EN-US&quot; style=&quot;font-size: 11.0pt ; font-family: &amp;#34;微软雅黑&amp;#34; , sans-serif ; color: #333333&quot;&gt;4/5/6&lt;/span&gt;" style="rounded=0;whiteSpace=wrap;html=1;fillColor=#dae8fc;strokeColor=#6c8ebf;" vertex="1" parent="WRAjtMvJbfz25hIAmW6u-58">
          <mxGeometry x="120" width="120" height="55" as="geometry" />
        </mxCell>
        <mxCell id="WRAjtMvJbfz25hIAmW6u-62" value="&lt;span style=&quot;font-size: 11.0pt ; font-family: &amp;#34;微软雅黑&amp;#34; , sans-serif ; color: #333333&quot;&gt;系统帮助学生自动选择必修课&lt;/span&gt;" style="rounded=0;whiteSpace=wrap;html=1;fillColor=#ffe6cc;strokeColor=#d79b00;" vertex="1" parent="WRAjtMvJbfz25hIAmW6u-58">
          <mxGeometry x="120" y="55" width="120" height="145" as="geometry" />
        </mxCell>
        <mxCell id="WRAjtMvJbfz25hIAmW6u-63" value="&lt;span style=&quot;font-size: 11.0pt ; font-family: &amp;#34;微软雅黑&amp;#34; , sans-serif ; color: #333333&quot;&gt;课程间的先修后修关系以及分数要求，提醒学生不可选择的课程&lt;/span&gt;" style="rounded=0;whiteSpace=wrap;html=1;fillColor=#f8cecc;strokeColor=#b85450;" vertex="1" parent="WRAjtMvJbfz25hIAmW6u-58">
          <mxGeometry x="240" y="55" width="120" height="145" as="geometry" />
        </mxCell>
        <mxCell id="WRAjtMvJbfz25hIAmW6u-64" value="" style="group;" vertex="1" connectable="0" parent="1">
          <mxGeometry width="360" height="200" as="geometry" />
        </mxCell>
        <mxCell id="WRAjtMvJbfz25hIAmW6u-65" value="&lt;span style=&quot;font-size: 11.0pt ; font-family: &amp;#34;微软雅黑&amp;#34; , sans-serif ; color: #333333&quot;&gt;查询自己的课表&lt;/span&gt;" style="rounded=0;whiteSpace=wrap;html=1;fillColor=#d5e8d4;strokeColor=#82b366;" vertex="1" parent="WRAjtMvJbfz25hIAmW6u-64">
          <mxGeometry width="120" height="55" as="geometry" />
        </mxCell>
        <mxCell id="WRAjtMvJbfz25hIAmW6u-66" value="&lt;span style=&quot;font-size: 11.0pt ; font-family: &amp;#34;微软雅黑&amp;#34; , sans-serif ; color: #333333&quot;&gt;以周历的形式展示出课表，以及每门课的上课时间、教室、周数&lt;/span&gt;&lt;span style=&quot;font-size: 11.0pt ; font-family: &amp;#34;微软雅黑&amp;#34; , sans-serif&quot;&gt;、任课教师&lt;/span&gt;" style="rounded=0;whiteSpace=wrap;html=1;fillColor=#fff2cc;strokeColor=#d6b656;" vertex="1" parent="WRAjtMvJbfz25hIAmW6u-64">
          <mxGeometry y="55" width="120" height="145" as="geometry" />
        </mxCell>
        <mxCell id="WRAjtMvJbfz25hIAmW6u-67" value="&lt;span lang=&quot;EN-US&quot; style=&quot;font-size: 11.0pt ; font-family: &amp;#34;微软雅黑&amp;#34; , sans-serif ; color: #333333&quot;&gt;5/7/8&lt;/span&gt;" style="rounded=0;whiteSpace=wrap;html=1;fillColor=#dae8fc;strokeColor=#6c8ebf;" vertex="1" parent="WRAjtMvJbfz25hIAmW6u-64">
          <mxGeometry x="120" width="120" height="55" as="geometry" />
        </mxCell>
        <mxCell id="WRAjtMvJbfz25hIAmW6u-68" value="&lt;span style=&quot;color: rgb(51 , 51 , 51) ; font-family: &amp;#34;helvetica&amp;#34; ; font-size: 14.6667px ; text-align: left&quot;&gt;能够按照所选的周数展示课表，比如（但不限于）前八周、后八周，能够根据课程类别（比如必修课、公选课）展示课表&lt;/span&gt;" style="rounded=0;whiteSpace=wrap;html=1;fillColor=#ffe6cc;strokeColor=#d79b00;" vertex="1" parent="WRAjtMvJbfz25hIAmW6u-64">
          <mxGeometry x="120" y="55" width="120" height="145" as="geometry" />
        </mxCell>
        <mxCell id="WRAjtMvJbfz25hIAmW6u-69" value="&lt;span style=&quot;font-size: 11.0pt ; font-family: &amp;#34;微软雅黑&amp;#34; , sans-serif ; color: #333333&quot;&gt;能够根据课表，以邮件、短信、或微信的方式提醒学生每日上课的时间和地点。注意，这种提醒可以随时开启，也可以随时终止&lt;/span&gt;" style="rounded=0;whiteSpace=wrap;html=1;fillColor=#f8cecc;strokeColor=#b85450;" vertex="1" parent="WRAjtMvJbfz25hIAmW6u-64">
          <mxGeometry x="240" y="55" width="120" height="145" as="geometry" />
        </mxCell>
        <mxCell id="WRAjtMvJbfz25hIAmW6u-70" value="" style="group;" vertex="1" connectable="0" parent="1">
          <mxGeometry x="400" width="360" height="200" as="geometry" />
        </mxCell>
        <mxCell id="WRAjtMvJbfz25hIAmW6u-71" value="&lt;span style=&quot;font-size: 11.0pt ; font-family: &amp;#34;微软雅黑&amp;#34; , sans-serif ; color: #333333&quot;&gt;查询自己的课表&lt;/span&gt;" style="rounded=0;whiteSpace=wrap;html=1;fillColor=#d5e8d4;strokeColor=#82b366;" vertex="1" parent="WRAjtMvJbfz25hIAmW6u-70">
          <mxGeometry width="120" height="55" as="geometry" />
        </mxCell>
        <mxCell id="WRAjtMvJbfz25hIAmW6u-72" value="&lt;span style=&quot;font-size: 11.0pt ; font-family: &amp;#34;微软雅黑&amp;#34; , sans-serif ; color: #333333&quot;&gt;以周历的形式展示出课表，以及每门课的上课时间、教室、周数&lt;/span&gt;" style="rounded=0;whiteSpace=wrap;html=1;fillColor=#fff2cc;strokeColor=#d6b656;" vertex="1" parent="WRAjtMvJbfz25hIAmW6u-70">
          <mxGeometry y="55" width="120" height="145" as="geometry" />
        </mxCell>
        <mxCell id="WRAjtMvJbfz25hIAmW6u-73" value="&lt;span lang=&quot;EN-US&quot; style=&quot;font-size: 11.0pt ; font-family: &amp;#34;微软雅黑&amp;#34; , sans-serif ; color: #333333&quot;&gt;5/5/8&lt;/span&gt;" style="rounded=0;whiteSpace=wrap;html=1;fillColor=#dae8fc;strokeColor=#6c8ebf;" vertex="1" parent="WRAjtMvJbfz25hIAmW6u-70">
          <mxGeometry x="120" width="120" height="55" as="geometry" />
        </mxCell>
        <mxCell id="WRAjtMvJbfz25hIAmW6u-74" value="" style="rounded=0;whiteSpace=wrap;html=1;fillColor=#ffe6cc;strokeColor=#d79b00;" vertex="1" parent="WRAjtMvJbfz25hIAmW6u-70">
          <mxGeometry x="120" y="55" width="120" height="145" as="geometry" />
        </mxCell>
        <mxCell id="WRAjtMvJbfz25hIAmW6u-75" value="&lt;span style=&quot;font-size: 11.0pt ; font-family: &amp;#34;微软雅黑&amp;#34; , sans-serif ; color: #333333&quot;&gt;能够根据课表，以邮件、短信、或微信的方式提醒学生每日上课的时间和地点。注意，这种提醒可以随时开启，也可以随时终止&lt;/span&gt;" style="rounded=0;whiteSpace=wrap;html=1;fillColor=#f8cecc;strokeColor=#b85450;" vertex="1" parent="WRAjtMvJbfz25hIAmW6u-70">
          <mxGeometry x="240" y="55" width="120" height="145" as="geometry" />
        </mxCell>
        <mxCell id="WRAjtMvJbfz25hIAmW6u-76" value="" style="group;" vertex="1" connectable="0" parent="1">
          <mxGeometry x="400" y="200" width="360" height="200" as="geometry" />
        </mxCell>
        <mxCell id="WRAjtMvJbfz25hIAmW6u-77" value="&lt;span style=&quot;font-size: 11.0pt ; font-family: &amp;#34;微软雅黑&amp;#34; , sans-serif ; color: #333333&quot;&gt;查询选课名单&lt;/span&gt;" style="rounded=0;whiteSpace=wrap;html=1;fillColor=#d5e8d4;strokeColor=#82b366;" vertex="1" parent="WRAjtMvJbfz25hIAmW6u-76">
          <mxGeometry width="120" height="55" as="geometry" />
        </mxCell>
        <mxCell id="WRAjtMvJbfz25hIAmW6u-78" value="&lt;span style=&quot;font-size: 11.0pt ; font-family: &amp;#34;微软雅黑&amp;#34; , sans-serif ; color: #333333&quot;&gt;列出所有选课学生的基本信息，包括学号、姓名、年级&lt;span lang=&quot;EN-US&quot;&gt;/&lt;/span&gt;班级、专业&lt;/span&gt;&lt;span style=&quot;font-size: 11pt ; font-family: , sans-serif&quot;&gt;、是否重修等信息&lt;/span&gt;" style="rounded=0;whiteSpace=wrap;html=1;fillColor=#fff2cc;strokeColor=#d6b656;" vertex="1" parent="WRAjtMvJbfz25hIAmW6u-76">
          <mxGeometry y="55" width="120" height="145" as="geometry" />
        </mxCell>
        <mxCell id="WRAjtMvJbfz25hIAmW6u-79" value="&lt;span lang=&quot;EN-US&quot; style=&quot;font-size: 11.0pt ; font-family: &amp;#34;微软雅黑&amp;#34; , sans-serif ; color: #333333&quot;&gt;3/3/3&lt;/span&gt;" style="rounded=0;whiteSpace=wrap;html=1;fillColor=#dae8fc;strokeColor=#6c8ebf;" vertex="1" parent="WRAjtMvJbfz25hIAmW6u-76">
          <mxGeometry x="120" width="120" height="55" as="geometry" />
        </mxCell>
        <mxCell id="WRAjtMvJbfz25hIAmW6u-80" value="" style="rounded=0;whiteSpace=wrap;html=1;fillColor=#ffe6cc;strokeColor=#d79b00;" vertex="1" parent="WRAjtMvJbfz25hIAmW6u-76">
          <mxGeometry x="120" y="55" width="120" height="145" as="geometry" />
        </mxCell>
        <mxCell id="WRAjtMvJbfz25hIAmW6u-81" value="" style="rounded=0;whiteSpace=wrap;html=1;fillColor=#f8cecc;strokeColor=#b85450;" vertex="1" parent="WRAjtMvJbfz25hIAmW6u-76">
          <mxGeometry x="240" y="55" width="120" height="145" as="geometry" />
        </mxCell>
        <mxCell id="WRAjtMvJbfz25hIAmW6u-82" value="" style="group" vertex="1" connectable="0" parent="1">
          <mxGeometry x="340" y="-400" width="401" height="360" as="geometry" />
        </mxCell>
        <mxCell id="WRAjtMvJbfz25hIAmW6u-83" value="" style="rounded=0;whiteSpace=wrap;html=1;fillColor=none;" vertex="1" parent="WRAjtMvJbfz25hIAmW6u-82">
          <mxGeometry width="401" height="280" as="geometry" />
        </mxCell>
        <mxCell id="WRAjtMvJbfz25hIAmW6u-84" value="&lt;font face=&quot;Comic Sans MS&quot;&gt;&lt;span style=&quot;font-size: 18px&quot;&gt;&lt;b&gt;排课&lt;/b&gt;&lt;/span&gt;&lt;/font&gt;" style="rounded=0;whiteSpace=wrap;html=1;fillColor=#fff2cc;strokeColor=#d6b656;" vertex="1" parent="WRAjtMvJbfz25hIAmW6u-82">
          <mxGeometry x="41" y="200" width="120" height="40" as="geometry" />
        </mxCell>
        <mxCell id="WRAjtMvJbfz25hIAmW6u-85" value="&lt;font style=&quot;font-size: 18px&quot; face=&quot;Comic Sans MS&quot;&gt;&lt;b&gt;学院教务&lt;/b&gt;&lt;/font&gt;" style="rounded=0;whiteSpace=wrap;html=1;fillColor=#dae8fc;strokeColor=#6c8ebf;" vertex="1" parent="WRAjtMvJbfz25hIAmW6u-82">
          <mxGeometry x="41" y="40" width="120" height="40" as="geometry" />
        </mxCell>
        <mxCell id="WRAjtMvJbfz25hIAmW6u-86" style="edgeStyle=orthogonalEdgeStyle;rounded=0;orthogonalLoop=1;jettySize=auto;html=1;exitX=0.5;exitY=1;exitDx=0;exitDy=0;entryX=0.5;entryY=0;entryDx=0;entryDy=0;" edge="1" parent="WRAjtMvJbfz25hIAmW6u-82" source="WRAjtMvJbfz25hIAmW6u-87" target="WRAjtMvJbfz25hIAmW6u-84">
          <mxGeometry relative="1" as="geometry" />
        </mxCell>
        <mxCell id="WRAjtMvJbfz25hIAmW6u-87" value="&lt;font face=&quot;Comic Sans MS&quot;&gt;&lt;span style=&quot;font-size: 18px&quot;&gt;&lt;b&gt;开课单&lt;/b&gt;&lt;/span&gt;&lt;/font&gt;" style="rounded=0;whiteSpace=wrap;html=1;fillColor=#d5e8d4;strokeColor=#82b366;" vertex="1" parent="WRAjtMvJbfz25hIAmW6u-82">
          <mxGeometry x="41" y="120" width="120" height="40" as="geometry" />
        </mxCell>
        <mxCell id="WRAjtMvJbfz25hIAmW6u-88" style="edgeStyle=orthogonalEdgeStyle;rounded=0;orthogonalLoop=1;jettySize=auto;html=1;exitX=0.5;exitY=1;exitDx=0;exitDy=0;" edge="1" parent="WRAjtMvJbfz25hIAmW6u-82" source="WRAjtMvJbfz25hIAmW6u-85" target="WRAjtMvJbfz25hIAmW6u-87">
          <mxGeometry relative="1" as="geometry" />
        </mxCell>
        <mxCell id="WRAjtMvJbfz25hIAmW6u-89" value="&lt;font face=&quot;Comic Sans MS&quot;&gt;&lt;span style=&quot;font-size: 14px&quot;&gt;确认&lt;/span&gt;&lt;/font&gt;" style="text;html=1;strokeColor=none;fillColor=none;align=center;verticalAlign=middle;whiteSpace=wrap;rounded=0;" vertex="1" parent="WRAjtMvJbfz25hIAmW6u-82">
          <mxGeometry x="61" y="90" width="40" height="20" as="geometry" />
        </mxCell>
        <mxCell id="WRAjtMvJbfz25hIAmW6u-90" value="&lt;font style=&quot;font-size: 18px&quot; face=&quot;Comic Sans MS&quot;&gt;&lt;b&gt;学校教务&lt;/b&gt;&lt;/font&gt;" style="rounded=0;whiteSpace=wrap;html=1;fillColor=#dae8fc;strokeColor=#6c8ebf;" vertex="1" parent="WRAjtMvJbfz25hIAmW6u-82">
          <mxGeometry x="241" y="40" width="120" height="40" as="geometry" />
        </mxCell>
        <mxCell id="WRAjtMvJbfz25hIAmW6u-91" value="&lt;font face=&quot;Comic Sans MS&quot;&gt;&lt;span style=&quot;font-size: 18px&quot;&gt;&lt;b&gt;排课&lt;/b&gt;&lt;/span&gt;&lt;/font&gt;" style="rounded=0;whiteSpace=wrap;html=1;fillColor=#fff2cc;strokeColor=#d6b656;" vertex="1" parent="WRAjtMvJbfz25hIAmW6u-82">
          <mxGeometry x="241" y="120" width="120" height="40" as="geometry" />
        </mxCell>
        <mxCell id="WRAjtMvJbfz25hIAmW6u-92" style="edgeStyle=orthogonalEdgeStyle;rounded=0;orthogonalLoop=1;jettySize=auto;html=1;exitX=0.5;exitY=1;exitDx=0;exitDy=0;entryX=0.5;entryY=0;entryDx=0;entryDy=0;" edge="1" parent="WRAjtMvJbfz25hIAmW6u-82" source="WRAjtMvJbfz25hIAmW6u-90" target="WRAjtMvJbfz25hIAmW6u-91">
          <mxGeometry relative="1" as="geometry" />
        </mxCell>
        <mxCell id="WRAjtMvJbfz25hIAmW6u-93" style="edgeStyle=orthogonalEdgeStyle;rounded=0;orthogonalLoop=1;jettySize=auto;html=1;exitX=0.5;exitY=0;exitDx=0;exitDy=0;entryX=0.205;entryY=1.005;entryDx=0;entryDy=0;entryPerimeter=0;shape=link;" edge="1" parent="WRAjtMvJbfz25hIAmW6u-82" source="WRAjtMvJbfz25hIAmW6u-94" target="WRAjtMvJbfz25hIAmW6u-83">
          <mxGeometry relative="1" as="geometry" />
        </mxCell>
        <mxCell id="WRAjtMvJbfz25hIAmW6u-94" value="讲台表" style="swimlane;fillColor=#e1d5e7;strokeColor=#9673a6;startSize=23;" vertex="1" parent="WRAjtMvJbfz25hIAmW6u-82">
          <mxGeometry x="41" y="320" width="80" height="40" as="geometry" />
        </mxCell>
        <mxCell id="WRAjtMvJbfz25hIAmW6u-95" value="" style="group" vertex="1" connectable="0" parent="1">
          <mxGeometry x="861" y="-400" width="200" height="280" as="geometry" />
        </mxCell>
        <mxCell id="WRAjtMvJbfz25hIAmW6u-96" value="" style="rounded=0;whiteSpace=wrap;html=1;fillColor=none;" vertex="1" parent="WRAjtMvJbfz25hIAmW6u-95">
          <mxGeometry width="200" height="200" as="geometry" />
        </mxCell>
        <mxCell id="WRAjtMvJbfz25hIAmW6u-97" value="&lt;b style=&quot;font-family: &amp;#34;comic sans ms&amp;#34; ; font-size: 18px&quot;&gt;选课要求&lt;/b&gt;" style="rounded=0;whiteSpace=wrap;html=1;fillColor=#fff2cc;strokeColor=#d6b656;" vertex="1" parent="WRAjtMvJbfz25hIAmW6u-95">
          <mxGeometry x="40" y="120" width="120" height="40" as="geometry" />
        </mxCell>
        <mxCell id="WRAjtMvJbfz25hIAmW6u-98" style="edgeStyle=orthogonalEdgeStyle;rounded=0;orthogonalLoop=1;jettySize=auto;html=1;exitX=0.5;exitY=1;exitDx=0;exitDy=0;entryX=0.5;entryY=0;entryDx=0;entryDy=0;" edge="1" parent="WRAjtMvJbfz25hIAmW6u-95" source="WRAjtMvJbfz25hIAmW6u-99" target="WRAjtMvJbfz25hIAmW6u-97">
          <mxGeometry as="geometry" />
        </mxCell>
        <mxCell id="WRAjtMvJbfz25hIAmW6u-99" value="&lt;font style=&quot;font-size: 18px&quot; face=&quot;Comic Sans MS&quot;&gt;&lt;b&gt;讲台老师&lt;/b&gt;&lt;/font&gt;" style="rounded=0;whiteSpace=wrap;html=1;fillColor=#dae8fc;strokeColor=#6c8ebf;" vertex="1" parent="WRAjtMvJbfz25hIAmW6u-95">
          <mxGeometry x="40" y="40" width="120" height="40" as="geometry" />
        </mxCell>
        <mxCell id="WRAjtMvJbfz25hIAmW6u-100" value="&lt;font style=&quot;font-size: 14px&quot; face=&quot;Comic Sans MS&quot;&gt;设定&lt;/font&gt;" style="text;html=1;strokeColor=none;fillColor=none;align=center;verticalAlign=middle;whiteSpace=wrap;rounded=0;" vertex="1" parent="WRAjtMvJbfz25hIAmW6u-95">
          <mxGeometry x="60" y="90" width="40" height="20" as="geometry" />
        </mxCell>
        <mxCell id="WRAjtMvJbfz25hIAmW6u-101" value="讲台表" style="swimlane;fillColor=#f5f5f5;strokeColor=#666666;startSize=23;fontColor=#333333;" vertex="1" parent="WRAjtMvJbfz25hIAmW6u-95">
          <mxGeometry x="60" y="240" width="80" height="40" as="geometry" />
        </mxCell>
        <mxCell id="WRAjtMvJbfz25hIAmW6u-102" style="edgeStyle=orthogonalEdgeStyle;rounded=0;orthogonalLoop=1;jettySize=auto;html=1;exitX=0.5;exitY=1;exitDx=0;exitDy=0;entryX=0.5;entryY=0;entryDx=0;entryDy=0;shape=link;" edge="1" parent="WRAjtMvJbfz25hIAmW6u-95" source="WRAjtMvJbfz25hIAmW6u-96" target="WRAjtMvJbfz25hIAmW6u-101">
          <mxGeometry relative="1" as="geometry" />
        </mxCell>
        <mxCell id="WRAjtMvJbfz25hIAmW6u-103" value="" style="group" vertex="1" connectable="0" parent="1">
          <mxGeometry x="1261" y="-400" width="200" height="280" as="geometry" />
        </mxCell>
        <mxCell id="WRAjtMvJbfz25hIAmW6u-104" value="" style="rounded=0;whiteSpace=wrap;html=1;fillColor=none;" vertex="1" parent="WRAjtMvJbfz25hIAmW6u-103">
          <mxGeometry width="200" height="200" as="geometry" />
        </mxCell>
        <mxCell id="WRAjtMvJbfz25hIAmW6u-105" value="&lt;font style=&quot;font-size: 18px&quot; face=&quot;Comic Sans MS&quot;&gt;&lt;b&gt;学生&lt;/b&gt;&lt;/font&gt;" style="rounded=0;whiteSpace=wrap;html=1;fillColor=#dae8fc;strokeColor=#6c8ebf;" vertex="1" parent="WRAjtMvJbfz25hIAmW6u-103">
          <mxGeometry x="40" y="40" width="120" height="40" as="geometry" />
        </mxCell>
        <mxCell id="WRAjtMvJbfz25hIAmW6u-106" value="&lt;font face=&quot;Comic Sans MS&quot;&gt;&lt;span style=&quot;font-size: 18px&quot;&gt;&lt;b&gt;选课&lt;/b&gt;&lt;/span&gt;&lt;/font&gt;" style="rounded=0;whiteSpace=wrap;html=1;fillColor=#fff2cc;strokeColor=#d6b656;" vertex="1" parent="WRAjtMvJbfz25hIAmW6u-103">
          <mxGeometry x="40" y="120" width="120" height="40" as="geometry" />
        </mxCell>
        <mxCell id="WRAjtMvJbfz25hIAmW6u-107" style="edgeStyle=orthogonalEdgeStyle;rounded=0;orthogonalLoop=1;jettySize=auto;html=1;exitX=0.5;exitY=1;exitDx=0;exitDy=0;entryX=0.5;entryY=0;entryDx=0;entryDy=0;" edge="1" parent="WRAjtMvJbfz25hIAmW6u-103" source="WRAjtMvJbfz25hIAmW6u-105" target="WRAjtMvJbfz25hIAmW6u-106">
          <mxGeometry relative="1" as="geometry" />
        </mxCell>
        <mxCell id="WRAjtMvJbfz25hIAmW6u-108" value="学生课程表" style="swimlane;fillColor=#e1d5e7;strokeColor=#9673a6;startSize=23;" vertex="1" parent="WRAjtMvJbfz25hIAmW6u-103">
          <mxGeometry x="60" y="240" width="80" height="40" as="geometry" />
        </mxCell>
        <mxCell id="WRAjtMvJbfz25hIAmW6u-109" style="edgeStyle=orthogonalEdgeStyle;rounded=0;orthogonalLoop=1;jettySize=auto;html=1;exitX=0.5;exitY=1;exitDx=0;exitDy=0;entryX=0.5;entryY=0;entryDx=0;entryDy=0;shape=link;" edge="1" parent="WRAjtMvJbfz25hIAmW6u-103" source="WRAjtMvJbfz25hIAmW6u-104" target="WRAjtMvJbfz25hIAmW6u-108">
          <mxGeometry relative="1" as="geometry" />
        </mxCell>
      </root>
    </mxGraphModel>
  </diagram>
</mxfile>
